<svg height="384pt" viewBox="0 -64 384.00279 384" width="384pt" xmlns="http://www.w3.org/2000/svg"><path d="m120.484375 128c0-4.636719-1.757813-9.277344-5.28125-12.796875l-99.199219-99.203125h233.359375c4.242188 0 8.320313 1.679688 11.363281 4.722656l107.277344 107.277344-107.277344 107.28125c-3.042968 3.039062-7.121093 4.71875-11.363281 4.71875h-233.359375l99.199219-99.199219c3.523437-3.519531 5.28125-8.160156 5.28125-12.800781zm0 0" fill="#4dd0e1"/><path d="m272.035156 9.410156c-6.0625-6.066406-14.117187-9.410156-22.671875-9.410156h-233.359375c-6.472656 0-12.304687 3.898438-14.78125 9.875-2.480468 5.980469-1.113281 12.855469 3.46875 17.4375l99.203125 99.207031c.484375.488281.589844 1.074219.589844 1.480469 0 .410156-.105469.992188-.589844 1.488281l-99.203125 99.199219c-4.574218 4.578125-5.941406 11.457031-3.46875 17.441406 2.476563 5.976563 8.308594 9.871094 14.78125 9.871094h233.359375c8.554688 0 16.609375-3.34375 22.671875-9.40625l107.28125-107.28125c6.25-6.246094 6.25-16.375 0-22.625zm-22.671875 214.589844h-194.734375l71.878906-71.878906c2.410157-2.40625 4.273438-5.191406 5.832032-8.121094h43.664062c8.832032 0 16-7.167969 16-16s-7.167968-16-16-16h-43.65625c-1.558594-2.925781-3.421875-5.703125-5.832031-8.109375l-71.878906-71.882813 194.777343.027344 95.957032 95.964844zm0 0" fill="#012e52"/></svg>